<?xml version="1.0" encoding="utf-8"?>
<!-- Generator: Adobe Illustrator 23.0.6, SVG Export Plug-In . SVG Version: 6.00 Build 0)  -->
<svg version="1.1" id="Layer_1" xmlns="http://www.w3.org/2000/svg" xmlns:xlink="http://www.w3.org/1999/xlink" x="0px" y="0px"
	 viewBox="0 0 128 128" style="enable-background:new 0 0 128 128;" xml:space="preserve">
<style type="text/css">
	.st0{fill:#E92460;}
	.st1{fill:#EA3F78;}
	.st2{fill:#9B1E4E;}
	.st3{fill:#660928;}
</style>
<path class="st0" d="M81.9,100c4,0.3,8.5-2.5,10-6.2l25-61.2c1.5-3.7-0.4-5.9-4.3-5l-76,18.6c-3.9,0.9-8.8,2.8-11,4.1
	c-2.2,1.3-6,9.4-7.1,13.2l-7,24c-1.1,3.8,1.2,7.2,5.2,7.5L81.9,100z"/>
<path class="st1" d="M81.9,100c4,0.3,8.5-2.5,10-6.2l25-61.2c1.5-3.7-0.4-5.9-4.3-5l-76,18.6c-3.9,0.9-8.8,2.8-11,4.1
	c-2.2,1.3-6,9.4-7.1,13.2l-7,24c-1.1,3.8,1.2,7.2,5.2,7.5L81.9,100z"/>
<g>
	<path class="st2" d="M32.7,37.8c0-8.1,2.3-14.6,6.8-19.3c4.5-4.8,10.6-7.1,18.1-7.1c7.6,0,13.7,2.4,18.3,7.1
		c4.6,4.8,6.9,11.2,6.9,19.4v23.4H32.7V37.8z M70.4,38.5c0-3.4-1.1-6.2-3.3-8.4c-2.2-2.1-5.3-3.2-9.3-3.2s-7.1,1.1-9.4,3.2
		C46.1,32.2,45,35,45,38.5v7.4h25.4V38.5z"/>
</g>
<g>
	<path class="st3" d="M20,116.7l-0.7-1.2L38,66.6h9.3l10.5,27.3l10.5-27.3h9.2l18.7,48.9l-0.7,1.2H80.9l-9-27.6l-9.5,27.6h-9.3
		l-9.6-27.7l-9,27.7H20z"/>
</g>
</svg>
